<svg width="24" height="25" viewBox="0 0 24 25" fill="none" xmlns="http://www.w3.org/2000/svg">
<path d="M7 11.4637V7.46375C7 6.13766 7.52678 4.86589 8.46447 3.92821C9.40215 2.99053 10.6739 2.46375 12 2.46375C13.3261 2.46375 14.5979 2.99053 15.5355 3.92821C16.4732 4.86589 17 6.13766 17 7.46375V11.4637M5 11.4637H19C20.1046 11.4637 21 12.3592 21 13.4637V20.4637C21 21.5683 20.1046 22.4637 19 22.4637H5C3.89543 22.4637 3 21.5683 3 20.4637V13.4637C3 12.3592 3.89543 11.4637 5 11.4637Z" stroke="#BBD4DE" stroke-width="1.5" stroke-linecap="round" stroke-linejoin="round"/>
</svg>
